<mxfile host="app.diagrams.net" modified="2021-09-09T06:18:53.449Z" agent="5.0 (X11; Linux x86_64) AppleWebKit/537.36 (KHTML, like Gecko) Chrome/93.0.4577.58 Safari/537.36" etag="UaDh2SRLZli5sQvrQ4OF" version="15.0.6" type="github" pages="2">
  <diagram id="nLWjwuCXky68B12FW-RH" name="Deadlines">
    <mxGraphModel dx="1418" dy="798" grid="1" gridSize="10" guides="1" tooltips="1" connect="1" arrows="1" fold="1" page="1" pageScale="1" pageWidth="850" pageHeight="1100" math="0" shadow="0">
      <root>
        <mxCell id="0" />
        <mxCell id="1" parent="0" />
        <mxCell id="R5ooREbFsaqu2JzrTj_Y-5" value="Batch" style="swimlane;fontStyle=0;childLayout=stackLayout;horizontal=1;startSize=26;horizontalStack=0;resizeParent=1;resizeParentMax=0;resizeLast=0;collapsible=1;marginBottom=0;" vertex="1" parent="1">
          <mxGeometry x="140" y="70" width="140" height="104" as="geometry" />
        </mxCell>
        <mxCell id="R5ooREbFsaqu2JzrTj_Y-6" value="Batch Name" style="text;strokeColor=none;fillColor=none;align=left;verticalAlign=top;spacingLeft=4;spacingRight=4;overflow=hidden;rotatable=0;points=[[0,0.5],[1,0.5]];portConstraint=eastwest;" vertex="1" parent="R5ooREbFsaqu2JzrTj_Y-5">
          <mxGeometry y="26" width="140" height="26" as="geometry" />
        </mxCell>
        <mxCell id="R5ooREbFsaqu2JzrTj_Y-7" value="Branch" style="text;strokeColor=none;fillColor=none;align=left;verticalAlign=top;spacingLeft=4;spacingRight=4;overflow=hidden;rotatable=0;points=[[0,0.5],[1,0.5]];portConstraint=eastwest;" vertex="1" parent="R5ooREbFsaqu2JzrTj_Y-5">
          <mxGeometry y="52" width="140" height="26" as="geometry" />
        </mxCell>
        <mxCell id="R5ooREbFsaqu2JzrTj_Y-8" value="Batch ID" style="text;strokeColor=none;fillColor=none;align=left;verticalAlign=top;spacingLeft=4;spacingRight=4;overflow=hidden;rotatable=0;points=[[0,0.5],[1,0.5]];portConstraint=eastwest;" vertex="1" parent="R5ooREbFsaqu2JzrTj_Y-5">
          <mxGeometry y="78" width="140" height="26" as="geometry" />
        </mxCell>
        <mxCell id="R5ooREbFsaqu2JzrTj_Y-9" value="Deadline" style="swimlane;fontStyle=0;childLayout=stackLayout;horizontal=1;startSize=26;horizontalStack=0;resizeParent=1;resizeParentMax=0;resizeLast=0;collapsible=1;marginBottom=0;" vertex="1" parent="1">
          <mxGeometry x="180" y="330" width="140" height="104" as="geometry" />
        </mxCell>
        <mxCell id="R5ooREbFsaqu2JzrTj_Y-10" value="Type = Ass, Proj, Quiz" style="text;strokeColor=none;fillColor=none;align=left;verticalAlign=top;spacingLeft=4;spacingRight=4;overflow=hidden;rotatable=0;points=[[0,0.5],[1,0.5]];portConstraint=eastwest;" vertex="1" parent="R5ooREbFsaqu2JzrTj_Y-9">
          <mxGeometry y="26" width="140" height="26" as="geometry" />
        </mxCell>
        <mxCell id="R5ooREbFsaqu2JzrTj_Y-11" value="Date of deadline" style="text;strokeColor=none;fillColor=none;align=left;verticalAlign=top;spacingLeft=4;spacingRight=4;overflow=hidden;rotatable=0;points=[[0,0.5],[1,0.5]];portConstraint=eastwest;" vertex="1" parent="R5ooREbFsaqu2JzrTj_Y-9">
          <mxGeometry y="52" width="140" height="26" as="geometry" />
        </mxCell>
        <mxCell id="R5ooREbFsaqu2JzrTj_Y-12" value="Details" style="text;strokeColor=none;fillColor=none;align=left;verticalAlign=top;spacingLeft=4;spacingRight=4;overflow=hidden;rotatable=0;points=[[0,0.5],[1,0.5]];portConstraint=eastwest;" vertex="1" parent="R5ooREbFsaqu2JzrTj_Y-9">
          <mxGeometry y="78" width="140" height="26" as="geometry" />
        </mxCell>
        <mxCell id="R5ooREbFsaqu2JzrTj_Y-13" value="Students" style="swimlane;fontStyle=0;childLayout=stackLayout;horizontal=1;startSize=26;horizontalStack=0;resizeParent=1;resizeParentMax=0;resizeLast=0;collapsible=1;marginBottom=0;" vertex="1" parent="1">
          <mxGeometry x="600" y="324" width="140" height="104" as="geometry" />
        </mxCell>
        <mxCell id="R5ooREbFsaqu2JzrTj_Y-14" value="Item 1" style="text;strokeColor=none;fillColor=none;align=left;verticalAlign=top;spacingLeft=4;spacingRight=4;overflow=hidden;rotatable=0;points=[[0,0.5],[1,0.5]];portConstraint=eastwest;" vertex="1" parent="R5ooREbFsaqu2JzrTj_Y-13">
          <mxGeometry y="26" width="140" height="26" as="geometry" />
        </mxCell>
        <mxCell id="R5ooREbFsaqu2JzrTj_Y-15" value="Item 2" style="text;strokeColor=none;fillColor=none;align=left;verticalAlign=top;spacingLeft=4;spacingRight=4;overflow=hidden;rotatable=0;points=[[0,0.5],[1,0.5]];portConstraint=eastwest;" vertex="1" parent="R5ooREbFsaqu2JzrTj_Y-13">
          <mxGeometry y="52" width="140" height="26" as="geometry" />
        </mxCell>
        <mxCell id="R5ooREbFsaqu2JzrTj_Y-16" value="Item 3" style="text;strokeColor=none;fillColor=none;align=left;verticalAlign=top;spacingLeft=4;spacingRight=4;overflow=hidden;rotatable=0;points=[[0,0.5],[1,0.5]];portConstraint=eastwest;" vertex="1" parent="R5ooREbFsaqu2JzrTj_Y-13">
          <mxGeometry y="78" width="140" height="26" as="geometry" />
        </mxCell>
        <mxCell id="R5ooREbFsaqu2JzrTj_Y-17" value="Course" style="swimlane;fontStyle=0;childLayout=stackLayout;horizontal=1;startSize=26;horizontalStack=0;resizeParent=1;resizeParentMax=0;resizeLast=0;collapsible=1;marginBottom=0;" vertex="1" parent="1">
          <mxGeometry x="340" y="200" width="140" height="104" as="geometry" />
        </mxCell>
        <mxCell id="R5ooREbFsaqu2JzrTj_Y-18" value="Course Tag" style="text;strokeColor=none;fillColor=none;align=left;verticalAlign=top;spacingLeft=4;spacingRight=4;overflow=hidden;rotatable=0;points=[[0,0.5],[1,0.5]];portConstraint=eastwest;" vertex="1" parent="R5ooREbFsaqu2JzrTj_Y-17">
          <mxGeometry y="26" width="140" height="26" as="geometry" />
        </mxCell>
        <mxCell id="R5ooREbFsaqu2JzrTj_Y-19" value="Course name" style="text;strokeColor=none;fillColor=none;align=left;verticalAlign=top;spacingLeft=4;spacingRight=4;overflow=hidden;rotatable=0;points=[[0,0.5],[1,0.5]];portConstraint=eastwest;" vertex="1" parent="R5ooREbFsaqu2JzrTj_Y-17">
          <mxGeometry y="52" width="140" height="26" as="geometry" />
        </mxCell>
        <mxCell id="R5ooREbFsaqu2JzrTj_Y-20" value="Professor" style="text;strokeColor=none;fillColor=none;align=left;verticalAlign=top;spacingLeft=4;spacingRight=4;overflow=hidden;rotatable=0;points=[[0,0.5],[1,0.5]];portConstraint=eastwest;" vertex="1" parent="R5ooREbFsaqu2JzrTj_Y-17">
          <mxGeometry y="78" width="140" height="26" as="geometry" />
        </mxCell>
        <mxCell id="R5ooREbFsaqu2JzrTj_Y-21" style="edgeStyle=orthogonalEdgeStyle;rounded=0;orthogonalLoop=1;jettySize=auto;html=1;exitX=1;exitY=0.5;exitDx=0;exitDy=0;" edge="1" parent="1" source="R5ooREbFsaqu2JzrTj_Y-8" target="R5ooREbFsaqu2JzrTj_Y-17">
          <mxGeometry relative="1" as="geometry" />
        </mxCell>
        <mxCell id="R5ooREbFsaqu2JzrTj_Y-22" style="edgeStyle=orthogonalEdgeStyle;rounded=0;orthogonalLoop=1;jettySize=auto;html=1;exitX=0;exitY=0.5;exitDx=0;exitDy=0;entryX=0.5;entryY=0;entryDx=0;entryDy=0;" edge="1" parent="1" source="R5ooREbFsaqu2JzrTj_Y-20" target="R5ooREbFsaqu2JzrTj_Y-9">
          <mxGeometry relative="1" as="geometry" />
        </mxCell>
      </root>
    </mxGraphModel>
  </diagram>
  <diagram id="GqCJ_PX-VJUZs1Rn7NjK" name="Amazon">
    <mxGraphModel dx="778" dy="772" grid="1" gridSize="10" guides="1" tooltips="1" connect="1" arrows="1" fold="1" page="1" pageScale="1" pageWidth="850" pageHeight="1100" math="0" shadow="0">
      <root>
        <mxCell id="hAP5zNst0-2kYa7o_52g-0" />
        <mxCell id="hAP5zNst0-2kYa7o_52g-1" parent="hAP5zNst0-2kYa7o_52g-0" />
        <mxCell id="hAP5zNst0-2kYa7o_52g-2" value="User" style="swimlane;fontStyle=0;childLayout=stackLayout;horizontal=1;startSize=26;horizontalStack=0;resizeParent=1;resizeParentMax=0;resizeLast=0;collapsible=1;marginBottom=0;" vertex="1" parent="hAP5zNst0-2kYa7o_52g-1">
          <mxGeometry x="130" y="80" width="140" height="130" as="geometry" />
        </mxCell>
        <mxCell id="hAP5zNst0-2kYa7o_52g-6" value="Email (pk)" style="text;strokeColor=none;fillColor=none;align=left;verticalAlign=top;spacingLeft=4;spacingRight=4;overflow=hidden;rotatable=0;points=[[0,0.5],[1,0.5]];portConstraint=eastwest;" vertex="1" parent="hAP5zNst0-2kYa7o_52g-2">
          <mxGeometry y="26" width="140" height="26" as="geometry" />
        </mxCell>
        <mxCell id="hAP5zNst0-2kYa7o_52g-12" value="Mobile Number" style="text;strokeColor=none;fillColor=none;align=left;verticalAlign=top;spacingLeft=4;spacingRight=4;overflow=hidden;rotatable=0;points=[[0,0.5],[1,0.5]];portConstraint=eastwest;" vertex="1" parent="hAP5zNst0-2kYa7o_52g-2">
          <mxGeometry y="52" width="140" height="26" as="geometry" />
        </mxCell>
        <mxCell id="hAP5zNst0-2kYa7o_52g-4" value="Name" style="text;strokeColor=none;fillColor=none;align=left;verticalAlign=top;spacingLeft=4;spacingRight=4;overflow=hidden;rotatable=0;points=[[0,0.5],[1,0.5]];portConstraint=eastwest;" vertex="1" parent="hAP5zNst0-2kYa7o_52g-2">
          <mxGeometry y="78" width="140" height="26" as="geometry" />
        </mxCell>
        <mxCell id="hAP5zNst0-2kYa7o_52g-5" value="Subscription Status" style="text;strokeColor=none;fillColor=none;align=left;verticalAlign=top;spacingLeft=4;spacingRight=4;overflow=hidden;rotatable=0;points=[[0,0.5],[1,0.5]];portConstraint=eastwest;" vertex="1" parent="hAP5zNst0-2kYa7o_52g-2">
          <mxGeometry y="104" width="140" height="26" as="geometry" />
        </mxCell>
        <mxCell id="hAP5zNst0-2kYa7o_52g-7" value="Address" style="swimlane;fontStyle=0;childLayout=stackLayout;horizontal=1;startSize=26;horizontalStack=0;resizeParent=1;resizeParentMax=0;resizeLast=0;collapsible=1;marginBottom=0;" vertex="1" parent="hAP5zNst0-2kYa7o_52g-1">
          <mxGeometry x="420" y="54" width="140" height="156" as="geometry" />
        </mxCell>
        <mxCell id="hAP5zNst0-2kYa7o_52g-8" value="Line 1" style="text;strokeColor=none;fillColor=none;align=left;verticalAlign=top;spacingLeft=4;spacingRight=4;overflow=hidden;rotatable=0;points=[[0,0.5],[1,0.5]];portConstraint=eastwest;" vertex="1" parent="hAP5zNst0-2kYa7o_52g-7">
          <mxGeometry y="26" width="140" height="26" as="geometry" />
        </mxCell>
        <mxCell id="hAP5zNst0-2kYa7o_52g-9" value="Line 2" style="text;strokeColor=none;fillColor=none;align=left;verticalAlign=top;spacingLeft=4;spacingRight=4;overflow=hidden;rotatable=0;points=[[0,0.5],[1,0.5]];portConstraint=eastwest;" vertex="1" parent="hAP5zNst0-2kYa7o_52g-7">
          <mxGeometry y="52" width="140" height="26" as="geometry" />
        </mxCell>
        <mxCell id="hAP5zNst0-2kYa7o_52g-10" value="City" style="text;strokeColor=none;fillColor=none;align=left;verticalAlign=top;spacingLeft=4;spacingRight=4;overflow=hidden;rotatable=0;points=[[0,0.5],[1,0.5]];portConstraint=eastwest;" vertex="1" parent="hAP5zNst0-2kYa7o_52g-7">
          <mxGeometry y="78" width="140" height="26" as="geometry" />
        </mxCell>
        <mxCell id="hAP5zNst0-2kYa7o_52g-11" value="State" style="text;strokeColor=none;fillColor=none;align=left;verticalAlign=top;spacingLeft=4;spacingRight=4;overflow=hidden;rotatable=0;points=[[0,0.5],[1,0.5]];portConstraint=eastwest;" vertex="1" parent="hAP5zNst0-2kYa7o_52g-7">
          <mxGeometry y="104" width="140" height="26" as="geometry" />
        </mxCell>
        <mxCell id="hAP5zNst0-2kYa7o_52g-46" value="Zip Code" style="text;strokeColor=none;fillColor=none;align=left;verticalAlign=top;spacingLeft=4;spacingRight=4;overflow=hidden;rotatable=0;points=[[0,0.5],[1,0.5]];portConstraint=eastwest;" vertex="1" parent="hAP5zNst0-2kYa7o_52g-7">
          <mxGeometry y="130" width="140" height="26" as="geometry" />
        </mxCell>
        <mxCell id="hAP5zNst0-2kYa7o_52g-17" value="Card Details" style="swimlane;fontStyle=0;childLayout=stackLayout;horizontal=1;startSize=26;horizontalStack=0;resizeParent=1;resizeParentMax=0;resizeLast=0;collapsible=1;marginBottom=0;" vertex="1" parent="hAP5zNst0-2kYa7o_52g-1">
          <mxGeometry x="420" y="288" width="140" height="156" as="geometry" />
        </mxCell>
        <mxCell id="hAP5zNst0-2kYa7o_52g-18" value="Name" style="text;strokeColor=none;fillColor=none;align=left;verticalAlign=top;spacingLeft=4;spacingRight=4;overflow=hidden;rotatable=0;points=[[0,0.5],[1,0.5]];portConstraint=eastwest;" vertex="1" parent="hAP5zNst0-2kYa7o_52g-17">
          <mxGeometry y="26" width="140" height="26" as="geometry" />
        </mxCell>
        <mxCell id="hAP5zNst0-2kYa7o_52g-19" value="Expiry Date" style="text;strokeColor=none;fillColor=none;align=left;verticalAlign=top;spacingLeft=4;spacingRight=4;overflow=hidden;rotatable=0;points=[[0,0.5],[1,0.5]];portConstraint=eastwest;" vertex="1" parent="hAP5zNst0-2kYa7o_52g-17">
          <mxGeometry y="52" width="140" height="26" as="geometry" />
        </mxCell>
        <mxCell id="hAP5zNst0-2kYa7o_52g-20" value="Name on card" style="text;strokeColor=none;fillColor=none;align=left;verticalAlign=top;spacingLeft=4;spacingRight=4;overflow=hidden;rotatable=0;points=[[0,0.5],[1,0.5]];portConstraint=eastwest;" vertex="1" parent="hAP5zNst0-2kYa7o_52g-17">
          <mxGeometry y="78" width="140" height="26" as="geometry" />
        </mxCell>
        <mxCell id="hAP5zNst0-2kYa7o_52g-21" value="Billing Address" style="text;strokeColor=none;fillColor=none;align=left;verticalAlign=top;spacingLeft=4;spacingRight=4;overflow=hidden;rotatable=0;points=[[0,0.5],[1,0.5]];portConstraint=eastwest;" vertex="1" parent="hAP5zNst0-2kYa7o_52g-17">
          <mxGeometry y="104" width="140" height="26" as="geometry" />
        </mxCell>
        <mxCell id="hAP5zNst0-2kYa7o_52g-50" value="Card Number" style="text;strokeColor=none;fillColor=none;align=left;verticalAlign=top;spacingLeft=4;spacingRight=4;overflow=hidden;rotatable=0;points=[[0,0.5],[1,0.5]];portConstraint=eastwest;" vertex="1" parent="hAP5zNst0-2kYa7o_52g-17">
          <mxGeometry y="130" width="140" height="26" as="geometry" />
        </mxCell>
        <mxCell id="hAP5zNst0-2kYa7o_52g-39" value="" style="edgeStyle=orthogonalEdgeStyle;rounded=0;orthogonalLoop=1;jettySize=auto;html=1;" edge="1" parent="hAP5zNst0-2kYa7o_52g-1" source="hAP5zNst0-2kYa7o_52g-22" target="hAP5zNst0-2kYa7o_52g-38">
          <mxGeometry relative="1" as="geometry" />
        </mxCell>
        <mxCell id="hAP5zNst0-2kYa7o_52g-22" value="Product" style="swimlane;fontStyle=0;childLayout=stackLayout;horizontal=1;startSize=26;horizontalStack=0;resizeParent=1;resizeParentMax=0;resizeLast=0;collapsible=1;marginBottom=0;" vertex="1" parent="hAP5zNst0-2kYa7o_52g-1">
          <mxGeometry x="130" y="600" width="140" height="208" as="geometry" />
        </mxCell>
        <mxCell id="hAP5zNst0-2kYa7o_52g-23" value="ID" style="text;strokeColor=none;fillColor=none;align=left;verticalAlign=top;spacingLeft=4;spacingRight=4;overflow=hidden;rotatable=0;points=[[0,0.5],[1,0.5]];portConstraint=eastwest;" vertex="1" parent="hAP5zNst0-2kYa7o_52g-22">
          <mxGeometry y="26" width="140" height="26" as="geometry" />
        </mxCell>
        <mxCell id="hAP5zNst0-2kYa7o_52g-24" value="Name" style="text;strokeColor=none;fillColor=none;align=left;verticalAlign=top;spacingLeft=4;spacingRight=4;overflow=hidden;rotatable=0;points=[[0,0.5],[1,0.5]];portConstraint=eastwest;" vertex="1" parent="hAP5zNst0-2kYa7o_52g-22">
          <mxGeometry y="52" width="140" height="26" as="geometry" />
        </mxCell>
        <mxCell id="hAP5zNst0-2kYa7o_52g-25" value="Seller (mv)" style="text;strokeColor=none;fillColor=none;align=left;verticalAlign=top;spacingLeft=4;spacingRight=4;overflow=hidden;rotatable=0;points=[[0,0.5],[1,0.5]];portConstraint=eastwest;" vertex="1" parent="hAP5zNst0-2kYa7o_52g-22">
          <mxGeometry y="78" width="140" height="26" as="geometry" />
        </mxCell>
        <mxCell id="hAP5zNst0-2kYa7o_52g-44" value="Category (mv)" style="text;strokeColor=none;fillColor=none;align=left;verticalAlign=top;spacingLeft=4;spacingRight=4;overflow=hidden;rotatable=0;points=[[0,0.5],[1,0.5]];portConstraint=eastwest;" vertex="1" parent="hAP5zNst0-2kYa7o_52g-22">
          <mxGeometry y="104" width="140" height="26" as="geometry" />
        </mxCell>
        <mxCell id="hAP5zNst0-2kYa7o_52g-26" value="Price" style="text;strokeColor=none;fillColor=none;align=left;verticalAlign=top;spacingLeft=4;spacingRight=4;overflow=hidden;rotatable=0;points=[[0,0.5],[1,0.5]];portConstraint=eastwest;" vertex="1" parent="hAP5zNst0-2kYa7o_52g-22">
          <mxGeometry y="130" width="140" height="26" as="geometry" />
        </mxCell>
        <mxCell id="hAP5zNst0-2kYa7o_52g-41" value="Total Quantity" style="text;strokeColor=none;fillColor=none;align=left;verticalAlign=top;spacingLeft=4;spacingRight=4;overflow=hidden;rotatable=0;points=[[0,0.5],[1,0.5]];portConstraint=eastwest;" vertex="1" parent="hAP5zNst0-2kYa7o_52g-22">
          <mxGeometry y="156" width="140" height="26" as="geometry" />
        </mxCell>
        <mxCell id="hAP5zNst0-2kYa7o_52g-54" value="Rating (Derived)" style="text;strokeColor=none;fillColor=none;align=left;verticalAlign=top;spacingLeft=4;spacingRight=4;overflow=hidden;rotatable=0;points=[[0,0.5],[1,0.5]];portConstraint=eastwest;" vertex="1" parent="hAP5zNst0-2kYa7o_52g-22">
          <mxGeometry y="182" width="140" height="26" as="geometry" />
        </mxCell>
        <mxCell id="hAP5zNst0-2kYa7o_52g-27" value="Order" style="swimlane;fontStyle=0;childLayout=stackLayout;horizontal=1;startSize=26;horizontalStack=0;resizeParent=1;resizeParentMax=0;resizeLast=0;collapsible=1;marginBottom=0;" vertex="1" parent="hAP5zNst0-2kYa7o_52g-1">
          <mxGeometry x="120" y="288" width="240" height="128" as="geometry" />
        </mxCell>
        <mxCell id="hAP5zNst0-2kYa7o_52g-28" value="Order ID" style="text;strokeColor=none;fillColor=none;align=left;verticalAlign=top;spacingLeft=4;spacingRight=4;overflow=hidden;rotatable=0;points=[[0,0.5],[1,0.5]];portConstraint=eastwest;" vertex="1" parent="hAP5zNst0-2kYa7o_52g-27">
          <mxGeometry y="26" width="240" height="24" as="geometry" />
        </mxCell>
        <mxCell id="hAP5zNst0-2kYa7o_52g-29" value="Order Status (Billed, In transit, Delivered)" style="text;strokeColor=none;fillColor=none;align=left;verticalAlign=top;spacingLeft=4;spacingRight=4;overflow=hidden;rotatable=0;points=[[0,0.5],[1,0.5]];portConstraint=eastwest;" vertex="1" parent="hAP5zNst0-2kYa7o_52g-27">
          <mxGeometry y="50" width="240" height="26" as="geometry" />
        </mxCell>
        <mxCell id="hAP5zNst0-2kYa7o_52g-45" value="Order Date" style="text;strokeColor=none;fillColor=none;align=left;verticalAlign=top;spacingLeft=4;spacingRight=4;overflow=hidden;rotatable=0;points=[[0,0.5],[1,0.5]];portConstraint=eastwest;" vertex="1" parent="hAP5zNst0-2kYa7o_52g-27">
          <mxGeometry y="76" width="240" height="26" as="geometry" />
        </mxCell>
        <mxCell id="hAP5zNst0-2kYa7o_52g-30" value="Total Billing (Derived)" style="text;strokeColor=none;fillColor=none;align=left;verticalAlign=top;spacingLeft=4;spacingRight=4;overflow=hidden;rotatable=0;points=[[0,0.5],[1,0.5]];portConstraint=eastwest;" vertex="1" parent="hAP5zNst0-2kYa7o_52g-27">
          <mxGeometry y="102" width="240" height="26" as="geometry" />
        </mxCell>
        <mxCell id="hAP5zNst0-2kYa7o_52g-32" style="edgeStyle=orthogonalEdgeStyle;rounded=0;orthogonalLoop=1;jettySize=auto;html=1;entryX=0.993;entryY=0.192;entryDx=0;entryDy=0;entryPerimeter=0;" edge="1" parent="hAP5zNst0-2kYa7o_52g-1" source="hAP5zNst0-2kYa7o_52g-31" target="hAP5zNst0-2kYa7o_52g-12">
          <mxGeometry relative="1" as="geometry" />
        </mxCell>
        <mxCell id="hAP5zNst0-2kYa7o_52g-35" style="edgeStyle=orthogonalEdgeStyle;rounded=0;orthogonalLoop=1;jettySize=auto;html=1;" edge="1" parent="hAP5zNst0-2kYa7o_52g-1" source="hAP5zNst0-2kYa7o_52g-31">
          <mxGeometry relative="1" as="geometry">
            <mxPoint x="490" y="288" as="targetPoint" />
          </mxGeometry>
        </mxCell>
        <mxCell id="hAP5zNst0-2kYa7o_52g-36" style="edgeStyle=orthogonalEdgeStyle;rounded=0;orthogonalLoop=1;jettySize=auto;html=1;entryX=0.5;entryY=0;entryDx=0;entryDy=0;" edge="1" parent="hAP5zNst0-2kYa7o_52g-1" source="hAP5zNst0-2kYa7o_52g-31" target="hAP5zNst0-2kYa7o_52g-27">
          <mxGeometry relative="1" as="geometry">
            <Array as="points">
              <mxPoint x="240" y="239" />
            </Array>
          </mxGeometry>
        </mxCell>
        <mxCell id="hAP5zNst0-2kYa7o_52g-49" style="edgeStyle=orthogonalEdgeStyle;rounded=0;orthogonalLoop=1;jettySize=auto;html=1;entryX=0.571;entryY=1;entryDx=0;entryDy=0;entryPerimeter=0;" edge="1" parent="hAP5zNst0-2kYa7o_52g-1" source="hAP5zNst0-2kYa7o_52g-31" target="hAP5zNst0-2kYa7o_52g-46">
          <mxGeometry relative="1" as="geometry" />
        </mxCell>
        <mxCell id="hAP5zNst0-2kYa7o_52g-31" value="" style="rhombus;whiteSpace=wrap;html=1;" vertex="1" parent="hAP5zNst0-2kYa7o_52g-1">
          <mxGeometry x="290" y="200" width="80" height="78" as="geometry" />
        </mxCell>
        <mxCell id="hAP5zNst0-2kYa7o_52g-34" style="edgeStyle=orthogonalEdgeStyle;rounded=0;orthogonalLoop=1;jettySize=auto;html=1;exitX=0.5;exitY=1;exitDx=0;exitDy=0;" edge="1" parent="hAP5zNst0-2kYa7o_52g-1" source="hAP5zNst0-2kYa7o_52g-31" target="hAP5zNst0-2kYa7o_52g-31">
          <mxGeometry relative="1" as="geometry" />
        </mxCell>
        <mxCell id="hAP5zNst0-2kYa7o_52g-40" value="" style="edgeStyle=orthogonalEdgeStyle;rounded=0;orthogonalLoop=1;jettySize=auto;html=1;" edge="1" parent="hAP5zNst0-2kYa7o_52g-1" source="hAP5zNst0-2kYa7o_52g-38" target="hAP5zNst0-2kYa7o_52g-30">
          <mxGeometry relative="1" as="geometry" />
        </mxCell>
        <mxCell id="hAP5zNst0-2kYa7o_52g-43" style="edgeStyle=orthogonalEdgeStyle;rounded=0;orthogonalLoop=1;jettySize=auto;html=1;" edge="1" parent="hAP5zNst0-2kYa7o_52g-1" source="hAP5zNst0-2kYa7o_52g-38" target="hAP5zNst0-2kYa7o_52g-42">
          <mxGeometry relative="1" as="geometry" />
        </mxCell>
        <mxCell id="hAP5zNst0-2kYa7o_52g-38" value="" style="rhombus;whiteSpace=wrap;html=1;fontStyle=0;startSize=26;" vertex="1" parent="hAP5zNst0-2kYa7o_52g-1">
          <mxGeometry x="160" y="460" width="80" height="80" as="geometry" />
        </mxCell>
        <mxCell id="hAP5zNst0-2kYa7o_52g-42" value="Quantity ordered" style="text;strokeColor=none;fillColor=none;align=left;verticalAlign=top;spacingLeft=4;spacingRight=4;overflow=hidden;rotatable=0;points=[[0,0.5],[1,0.5]];portConstraint=eastwest;" vertex="1" parent="hAP5zNst0-2kYa7o_52g-1">
          <mxGeometry x="10" y="452" width="100" height="26" as="geometry" />
        </mxCell>
        <mxCell id="hAP5zNst0-2kYa7o_52g-48" style="edgeStyle=orthogonalEdgeStyle;rounded=0;orthogonalLoop=1;jettySize=auto;html=1;exitX=0.5;exitY=1;exitDx=0;exitDy=0;" edge="1" parent="hAP5zNst0-2kYa7o_52g-1" source="hAP5zNst0-2kYa7o_52g-31" target="hAP5zNst0-2kYa7o_52g-31">
          <mxGeometry relative="1" as="geometry" />
        </mxCell>
        <mxCell id="hAP5zNst0-2kYa7o_52g-55" value="Reviews" style="swimlane;fontStyle=0;childLayout=stackLayout;horizontal=1;startSize=26;horizontalStack=0;resizeParent=1;resizeParentMax=0;resizeLast=0;collapsible=1;marginBottom=0;" vertex="1" parent="hAP5zNst0-2kYa7o_52g-1">
          <mxGeometry x="420" y="646" width="140" height="78" as="geometry" />
        </mxCell>
        <mxCell id="hAP5zNst0-2kYa7o_52g-57" value="Rating" style="text;strokeColor=none;fillColor=none;align=left;verticalAlign=top;spacingLeft=4;spacingRight=4;overflow=hidden;rotatable=0;points=[[0,0.5],[1,0.5]];portConstraint=eastwest;" vertex="1" parent="hAP5zNst0-2kYa7o_52g-55">
          <mxGeometry y="26" width="140" height="26" as="geometry" />
        </mxCell>
        <mxCell id="hAP5zNst0-2kYa7o_52g-58" value="Review" style="text;strokeColor=none;fillColor=none;align=left;verticalAlign=top;spacingLeft=4;spacingRight=4;overflow=hidden;rotatable=0;points=[[0,0.5],[1,0.5]];portConstraint=eastwest;" vertex="1" parent="hAP5zNst0-2kYa7o_52g-55">
          <mxGeometry y="52" width="140" height="26" as="geometry" />
        </mxCell>
        <mxCell id="hAP5zNst0-2kYa7o_52g-60" style="edgeStyle=orthogonalEdgeStyle;rounded=0;orthogonalLoop=1;jettySize=auto;html=1;" edge="1" parent="hAP5zNst0-2kYa7o_52g-1" source="hAP5zNst0-2kYa7o_52g-44" target="hAP5zNst0-2kYa7o_52g-62">
          <mxGeometry relative="1" as="geometry" />
        </mxCell>
        <mxCell id="hAP5zNst0-2kYa7o_52g-61" style="edgeStyle=orthogonalEdgeStyle;rounded=0;orthogonalLoop=1;jettySize=auto;html=1;exitX=1;exitY=0.5;exitDx=0;exitDy=0;" edge="1" parent="hAP5zNst0-2kYa7o_52g-1" source="hAP5zNst0-2kYa7o_52g-4">
          <mxGeometry relative="1" as="geometry">
            <mxPoint x="400" y="580" as="targetPoint" />
          </mxGeometry>
        </mxCell>
        <mxCell id="hAP5zNst0-2kYa7o_52g-62" value="" style="rhombus;whiteSpace=wrap;html=1;" vertex="1" parent="hAP5zNst0-2kYa7o_52g-1">
          <mxGeometry x="360" y="580" width="80" height="80" as="geometry" />
        </mxCell>
        <mxCell id="hAP5zNst0-2kYa7o_52g-64" style="edgeStyle=orthogonalEdgeStyle;rounded=0;orthogonalLoop=1;jettySize=auto;html=1;" edge="1" parent="hAP5zNst0-2kYa7o_52g-1" source="hAP5zNst0-2kYa7o_52g-62" target="hAP5zNst0-2kYa7o_52g-55">
          <mxGeometry relative="1" as="geometry">
            <mxPoint x="400" y="660" as="sourcePoint" />
            <mxPoint x="490" y="646" as="targetPoint" />
            <Array as="points">
              <mxPoint x="460" y="620" />
              <mxPoint x="460" y="626" />
              <mxPoint x="490" y="626" />
            </Array>
          </mxGeometry>
        </mxCell>
        <mxCell id="hAP5zNst0-2kYa7o_52g-65" value="Seller" style="text;strokeColor=none;fillColor=none;align=left;verticalAlign=top;spacingLeft=4;spacingRight=4;overflow=hidden;rotatable=0;points=[[0,0.5],[1,0.5]];portConstraint=eastwest;" vertex="1" parent="hAP5zNst0-2kYa7o_52g-1">
          <mxGeometry x="30" y="478" width="60" height="26" as="geometry" />
        </mxCell>
      </root>
    </mxGraphModel>
  </diagram>
</mxfile>
